<svg xmlns="http://www.w3.org/2000/svg" viewBox="0 0 384 512"><defs><style>.fa-secondary{opacity:.4}</style></defs><path d="M384 128H272a16 16 0 0 1-16-16V0H24A23.94 23.94 0 0 0 0 23.88V488a23.94 23.94 0 0 0 23.88 24H360a23.94 23.94 0 0 0 24-23.88V128zm-88 212a12 12 0 0 1-12 12h-60v60a12 12 0 0 1-12 12h-40a12 12 0 0 1-12-12v-60h-60a12 12 0 0 1-12-12v-40a12 12 0 0 1 12-12h60v-60a12 12 0 0 1 12-12h40a12 12 0 0 1 12 12v60h60a12 12 0 0 1 12 12z" class="fa-secondary"/><path d="M377 105L279.1 7a24 24 0 0 0-17-7H256v112a16 16 0 0 0 16 16h112v-6.1a23.9 23.9 0 0 0-7-16.9zm-93 183h-60v-60a12 12 0 0 0-12-12h-40a12 12 0 0 0-12 12v60h-60a12 12 0 0 0-12 12v40a12 12 0 0 0 12 12h60v60a12 12 0 0 0 12 12h40a12 12 0 0 0 12-12v-60h60a12 12 0 0 0 12-12v-40a12 12 0 0 0-12-12z" class="fa-primary"/></svg>