
<svg xmlns="http://www.w3.org/2000/svg" viewBox="0 0 309.09 42.89" width="220" class="bigcapital">
  <path fill="#2d95fd" class="cls-1" d="M56,3.16,61.33,8.5,31.94,37.9l-5.35-5.35Z" transform="translate(-0.14 -3.16)"></path>
  <path fill="#004dd0" class="cls-2" d="M29.53,6.94l5.35,5.34L5.49,41.67.14,36.33l15.8-15.8Z" transform="translate(-0.14 -3.16)"></path>
  <path fill="#0045ba" class="cls-3" d="M94.36,38.87H79.62v-31H94c6.33,0,10.22,3.15,10.22,8V16a7.22,7.22,0,0,1-4.07,6.69c3.58,1.37,5.8,3.45,5.8,7.61v.09C106,36,101.35,38.87,94.36,38.87Zm3.1-21.81c0-2-1.59-3.19-4.47-3.19H86.26v6.55h6.29c3,0,4.91-1,4.91-3.28Zm1.72,12.39c0-2.08-1.54-3.37-5-3.37H86.26V32.9h8.1c3,0,4.82-1.06,4.82-3.36Z" transform="translate(-0.14 -3.16)"></path>
  <path fill="#0045ba" class="cls-3" d="M110.56,12.54v-6h7.08v6Zm.18,26.33V15.15h6.72V38.87Z" transform="translate(-0.14 -3.16)"></path>
  <path fill="#0045ba" class="cls-3" d="M134,46a22.55,22.55,0,0,1-10.49-2.47l2.3-5a15.52,15.52,0,0,0,8,2.17c4.61,0,6.78-2.21,6.78-6.46V33.08c-2,2.39-4.16,3.85-7.75,3.85-5.53,0-10.53-4-10.53-11.07v-.09c0-7.08,5.09-11.06,10.53-11.06a9.63,9.63,0,0,1,7.66,3.54v-3.1h6.72V33.52C147.2,42.46,142.78,46,134,46Zm6.6-20.27a5.79,5.79,0,0,0-11.56,0v.09a5.42,5.42,0,0,0,5.76,5.49,5.49,5.49,0,0,0,5.8-5.49Z" transform="translate(-0.14 -3.16)"></path>
  <path fill="#0045ba" class="cls-3" d="M164,39.41a12.11,12.11,0,0,1-12.35-12.26v-.09a12.18,12.18,0,0,1,12.44-12.35c4.47,0,7.25,1.5,9.47,4l-4.12,4.43a6.93,6.93,0,0,0-5.4-2.61c-3.36,0-5.75,3-5.75,6.46v.09c0,3.63,2.34,6.55,6,6.55,2.26,0,3.8-1,5.44-2.53l3.94,4A12,12,0,0,1,164,39.41Z" transform="translate(-0.14 -3.16)"></path>
  <path fill="#0045ba" class="cls-3" d="M191.51,38.87V36.31a9.15,9.15,0,0,1-7.17,3c-4.47,0-8.15-2.57-8.15-7.26V32c0-5.18,3.94-7.57,9.56-7.57a16.74,16.74,0,0,1,5.8,1V25c0-2.79-1.72-4.34-5.09-4.34a17.57,17.57,0,0,0-6.55,1.28l-1.68-5.13a21,21,0,0,1,9.21-1.9c7.34,0,10.57,3.8,10.57,10.22V38.87Zm.13-9.55a10.3,10.3,0,0,0-4.29-.89c-2.88,0-4.65,1.15-4.65,3.27v.09c0,1.82,1.5,2.88,3.67,2.88,3.15,0,5.27-1.73,5.27-4.16Z" transform="translate(-0.14 -3.16)"></path>
  <path fill="#0045ba" class="cls-3" d="M217.49,39.32a9.1,9.1,0,0,1-7.39-3.54V46h-6.73V15.15h6.73v3.41a8.7,8.7,0,0,1,7.39-3.85c5.53,0,10.8,4.34,10.8,12.26v.09C228.29,35,223.11,39.32,217.49,39.32ZM221.56,27c0-3.94-2.66-6.55-5.8-6.55S210,23,210,27v.09c0,3.94,2.61,6.55,5.75,6.55s5.8-2.57,5.8-6.55Z" transform="translate(-0.14 -3.16)"></path>
  <path fill="#0045ba" class="cls-3" d="M232.93,12.54v-6H240v6Zm.18,26.33V15.15h6.73V38.87Z" transform="translate(-0.14 -3.16)"></path>
  <path fill="#0045ba" class="cls-3" d="M253.73,39.27c-4.11,0-6.9-1.63-6.9-7.12V20.91H244V15.15h2.83V9.09h6.73v6.06h5.57v5.76h-5.57V31c0,1.55.66,2.3,2.16,2.3A6.84,6.84,0,0,0,259,32.5v5.4A9.9,9.9,0,0,1,253.73,39.27Z" transform="translate(-0.14 -3.16)"></path>
  <path fill="#0045ba" class="cls-3" d="M277.55,38.87V36.31a9.15,9.15,0,0,1-7.18,3c-4.46,0-8.14-2.57-8.14-7.26V32c0-5.18,3.94-7.57,9.56-7.57a16.74,16.74,0,0,1,5.8,1V25c0-2.79-1.73-4.34-5.09-4.34A17.57,17.57,0,0,0,266,21.92l-1.68-5.13a20.94,20.94,0,0,1,9.2-1.9c7.35,0,10.58,3.8,10.58,10.22V38.87Zm.13-9.55a10.31,10.31,0,0,0-4.3-.89c-2.87,0-4.64,1.15-4.64,3.27v.09c0,1.82,1.5,2.88,3.67,2.88,3.14,0,5.27-1.73,5.27-4.16Z" transform="translate(-0.14 -3.16)"></path>
  <path fill="#0045ba" class="cls-3" d="M289.72,38.87V6.57h6.72v32.3Z" transform="translate(-0.14 -3.16)"></path>
  <path fill="#2392ff" class="cls-4" d="M302.06,38.87V31.79h7.17v7.08Z" transform="translate(-0.14 -3.16)"></path>
</svg>

