<svg xmlns="http://www.w3.org/2000/svg" viewBox="0 0 576 512"><path d="M544 272h-64V150.627l35.313-35.313c6.249-6.248 6.249-16.379 0-22.627-6.248-6.248-16.379-6.248-22.627 0L457.373 128H417C417 57.26 359.751 0 289 0c-70.74 0-128 57.249-128 128h-42.373L75.314 84.687c-6.249-6.248-16.379-6.248-22.628 0-6.248 6.248-6.248 16.379 0 22.627L96 150.627V272H32c-8.836 0-16 7.163-16 16s7.164 16 16 16h64v24c0 36.634 11.256 70.686 30.484 98.889l-57.797 57.797c-6.249 6.248-6.249 16.379 0 22.627 6.249 6.249 16.379 6.248 22.627 0l55.616-55.616C178.851 483.971 223.128 504 272 504h32c48.872 0 93.149-20.029 125.071-52.302l55.616 55.616c6.249 6.249 16.379 6.248 22.627 0 6.249-6.248 6.249-16.379 0-22.627l-57.797-57.797C468.744 398.686 480 364.634 480 328v-24h64c8.837 0 16-7.163 16-16s-7.163-16-16-16zM289 32c53.019 0 96 42.981 96 96H193c0-53.019 42.981-96 96-96zm15 440V236c0-6.627-5.373-12-12-12h-8c-6.627 0-12 5.373-12 12v236c-79.402 0-144-64.599-144-144V160h320v168c0 79.401-64.599 144-144 144z"/></svg>