<svg xmlns="http://www.w3.org/2000/svg" viewBox="0 0 416 512"><path d="M406.45 326.27l-68-70.28h11.47c13.63 0 25.94-7.8 31.31-19.86 5.19-11.61 3.06-24.78-5.53-34.34L252.87 64.64C254.8 59.44 256 53.88 256 48c0-26.51-21.49-48-48-48s-48 21.49-48 48c0 5.88 1.21 11.44 3.14 16.64L40.3 201.77c-8.59 9.58-10.72 22.75-5.53 34.36 5.38 12.06 17.69 19.86 31.31 19.86h11.47l-68 70.28c-9.47 9.8-12.13 23.47-6.94 35.67 5.66 13.39 19.44 22.05 35.06 22.05H184v32H63.99c-8.84 0-16 7.16-16 16V496c0 8.84 7.16 16 16 16h288.02c8.84 0 16-7.16 16-16v-64.02c0-8.84-7.16-16-16-16H232v-32h146.32c15.63 0 29.41-8.66 35.06-22.05 5.2-12.2 2.54-25.87-6.93-35.66zM208 32c8.82 0 16 7.18 16 16s-7.18 16-16 16-16-7.18-16-16 7.18-16 16-16zm128.01 415.98V480H79.99v-32.02h256.02zm42.31-96H37.68c-4.13 0-5.66-2.17-5.13-3.47l107.56-111.15c4.89-5.05 1.35-13.5-5.67-13.56l-70.32-.68 119.85-133.8C191.06 93.46 199.2 96 208 96c8.37 0 16.13-2.33 22.98-6.1l118.93 134.09H281.8c-7.06 0-10.66 8.48-5.75 13.56l107.96 111.69c-.03.57-1.56 2.74-5.69 2.74z"/></svg>