<svg xmlns="http://www.w3.org/2000/svg" viewBox="0 0 384 512"><path d="M373.02 285.8l-49.36-42.78c9.88-3.5 18.06-10.81 22.41-20.53 6.06-13.58 3.62-28.95-6.38-40.12L236.18 66.78A47.92 47.92 0 0 0 240 48c0-26.51-21.49-48-48-48s-48 21.49-48 48c0 6.67 1.37 13.01 3.83 18.78L44.31 182.36c-10 11.17-12.44 26.55-6.38 40.12 4.34 9.72 12.53 17.03 22.41 20.53l-49.36 42.8c-10.91 11.3-13.97 27.12-7.94 41.3 6.41 15.11 21.75 24.88 39.06 24.88H168V384H48c-8.84 0-16 7.16-16 16v96c0 8.84 7.16 16 16 16h288c8.84 0 16-7.16 16-16v-96c0-8.84-7.16-16-16-16H216v-32.02h125.89c17.31 0 32.66-9.77 39.06-24.88 6.03-14.16 2.97-29.99-7.93-41.3zM192 32.02c8.83 0 15.98 7.16 15.98 15.98S200.83 63.98 192 63.98 176.02 56.83 176.02 48s7.15-15.98 15.98-15.98zM304 432v32H80v-32h224zM60.17 303.98l111.2-106.67H95.34l91.24-101.86c1.8.21 3.56.54 5.42.54s3.62-.34 5.42-.54l91.24 101.86h-76.03l111.2 106.67H60.17z"/></svg>