<svg xmlns="http://www.w3.org/2000/svg" viewBox="0 0 384 512"><defs><style>.fa-secondary{opacity:.4}</style></defs><path d="M384 128H272a16 16 0 0 1-16-16V0H24A23.94 23.94 0 0 0 0 23.88V488a23.94 23.94 0 0 0 23.88 24H360a23.94 23.94 0 0 0 24-23.88V128zm-98.6 240.1a12 12 0 0 1 0 17l-28.3 28.3a12 12 0 0 1-17 0L192 365.3l-48.1 48.1a12 12 0 0 1-17 0l-28.3-28.3a12 12 0 0 1 0-17l48.1-48.1-48.1-48.1a12 12 0 0 1 0-17l28.3-28.3a12 12 0 0 1 17 0l48.1 48.1 48.1-48.1a12 12 0 0 1 17 0l28.3 28.3a12 12 0 0 1 0 17L237.3 320z" class="fa-secondary"/><path d="M377 105L279.1 7a24 24 0 0 0-17-7H256v112a16 16 0 0 0 16 16h112v-6.1a23.9 23.9 0 0 0-7-16.9zm-91.57 166.87a12 12 0 0 0 0-17l-28.3-28.3a12 12 0 0 0-17 0L192 274.7l-48.1-48.1a12 12 0 0 0-17 0l-28.3 28.3a12 12 0 0 0 0 17l48.1 48.1-48.1 48.1a12 12 0 0 0 0 17l28.3 28.3a12 12 0 0 0 17 0l48.1-48.1 48.1 48.1a12 12 0 0 0 17 0l28.33-28.33a12 12 0 0 0 0-17L237.3 320l48.1-48.1z" class="fa-primary"/></svg>