<svg xmlns="http://www.w3.org/2000/svg" viewBox="0 0 448 512"><path d="M432 32H32A32 32 0 0 0 0 64v400a16 16 0 0 0 16 16h16a16 16 0 0 0 16-16V80h384a16 16 0 0 0 16-16V48a16 16 0 0 0-16-16zM236 424h-24a16 16 0 0 0-16 16v24a16 16 0 0 0 16 16h24a16 16 0 0 0 16-16v-24a16 16 0 0 0-16-16zm-100 0h-24a16 16 0 0 0-16 16v24a16 16 0 0 0 16 16h24a16 16 0 0 0 16-16v-24a16 16 0 0 0-16-16zm200 0h-24a16 16 0 0 0-16 16v24a16 16 0 0 0 16 16h24a16 16 0 0 0 16-16v-24a16 16 0 0 0-16-16zm96-196h-24a16 16 0 0 0-16 16v24a16 16 0 0 0 16 16h24a16 16 0 0 0 16-16v-24a16 16 0 0 0-16-16zm0 100h-24a16 16 0 0 0-16 16v24a16 16 0 0 0 16 16h24a16 16 0 0 0 16-16v-24a16 16 0 0 0-16-16zm0-200h-24a16 16 0 0 0-16 16v24a16 16 0 0 0 16 16h24a16 16 0 0 0 16-16v-24a16 16 0 0 0-16-16zm0 296h-24a16 16 0 0 0-16 16v24a16 16 0 0 0 16 16h24a16 16 0 0 0 16-16v-24a16 16 0 0 0-16-16z"/></svg>