<svg xmlns="http://www.w3.org/2000/svg" viewBox="0 0 448 512"><path d="M336 228h-24a16 16 0 0 0-16 16v24a16 16 0 0 0 16 16h24a16 16 0 0 0 16-16v-24a16 16 0 0 0-16-16zm96 0h-24a16 16 0 0 0-16 16v24a16 16 0 0 0 16 16h24a16 16 0 0 0 16-16v-24a16 16 0 0 0-16-16zm-296 0h-24a16 16 0 0 0-16 16v24a16 16 0 0 0 16 16h24a16 16 0 0 0 16-16v-24a16 16 0 0 0-16-16zm200 196h-24a16 16 0 0 0-16 16v24a16 16 0 0 0 16 16h24a16 16 0 0 0 16-16v-24a16 16 0 0 0-16-16zm96 0h-24a16 16 0 0 0-16 16v24a16 16 0 0 0 16 16h24a16 16 0 0 0 16-16v-24a16 16 0 0 0-16-16zm0-96h-24a16 16 0 0 0-16 16v24a16 16 0 0 0 16 16h24a16 16 0 0 0 16-16v-24a16 16 0 0 0-16-16zm0-200h-24a16 16 0 0 0-16 16v24a16 16 0 0 0 16 16h24a16 16 0 0 0 16-16v-24a16 16 0 0 0-16-16zM136 424h-24a16 16 0 0 0-16 16v24a16 16 0 0 0 16 16h24a16 16 0 0 0 16-16v-24a16 16 0 0 0-16-16zm100-196h-24a16 16 0 0 0-16 16v24a16 16 0 0 0 16 16h24a16 16 0 0 0 16-16v-24a16 16 0 0 0-16-16zm0 196h-24a16 16 0 0 0-16 16v24a16 16 0 0 0 16 16h24a16 16 0 0 0 16-16v-24a16 16 0 0 0-16-16zm0-96h-24a16 16 0 0 0-16 16v24a16 16 0 0 0 16 16h24a16 16 0 0 0 16-16v-24a16 16 0 0 0-16-16zm0-200h-24a16 16 0 0 0-16 16v24a16 16 0 0 0 16 16h24a16 16 0 0 0 16-16v-24a16 16 0 0 0-16-16zm0-96h-24a16 16 0 0 0-16 16v24a16 16 0 0 0 16 16h24a16 16 0 0 0 16-16V48a16 16 0 0 0-16-16zm100 0h-24a16 16 0 0 0-16 16v24a16 16 0 0 0 16 16h24a16 16 0 0 0 16-16V48a16 16 0 0 0-16-16zm96 0h-24a16 16 0 0 0-16 16v24a16 16 0 0 0 16 16h24a16 16 0 0 0 16-16V48a16 16 0 0 0-16-16zM40 228H16a16 16 0 0 0-16 16v24a16 16 0 0 0 16 16h24a16 16 0 0 0 16-16v-24a16 16 0 0 0-16-16zm0 196H16a16 16 0 0 0-16 16v24a16 16 0 0 0 16 16h24a16 16 0 0 0 16-16v-24a16 16 0 0 0-16-16zm0-96H16a16 16 0 0 0-16 16v24a16 16 0 0 0 16 16h24a16 16 0 0 0 16-16v-24a16 16 0 0 0-16-16zm0-200H16a16 16 0 0 0-16 16v24a16 16 0 0 0 16 16h24a16 16 0 0 0 16-16v-24a16 16 0 0 0-16-16zm0-96H16A16 16 0 0 0 0 48v24a16 16 0 0 0 16 16h24a16 16 0 0 0 16-16V48a16 16 0 0 0-16-16zm96 0h-24a16 16 0 0 0-16 16v24a16 16 0 0 0 16 16h24a16 16 0 0 0 16-16V48a16 16 0 0 0-16-16z"/></svg>